<?xml version="1.0"?>
<svg xmlns="http://www.w3.org/2000/svg" version="1.1" id="Capa_1" x="0px" y="0px" viewBox="0 0 212.974 212.974"
     style="enable-background:new 0 0 212.974 212.974;" xml:space="preserve" width="512px" height="512px" class=""><g><g>
	<path d="M205.474,10.678H155.98h-49.493H56.993H7.5c-4.142,0-7.5,3.358-7.5,7.5V64.75v130.046c0,4.142,3.358,7.5,7.5,7.5h197.974   c4.142,0,7.5-3.358,7.5-7.5V18.178C212.974,14.036,209.616,10.678,205.474,10.678z M197.974,57.25H163.48V25.678h34.494V57.25z    M148.48,25.678V57.25h-34.493V25.678H148.48z M64.493,57.25V25.678h34.493V57.25H64.493z M15,187.295V64.75V25.678h34.493V64.75   c0,4.142,3.358,7.5,7.5,7.5h49.493h49.493h41.994v115.046H15z" data-original="#000000" class="active-path" data-old_color="#000000" fill="#1273EB"/>
	<path d="M136.999,122.272h-23.012V99.26c0-4.142-3.358-7.5-7.5-7.5c-4.142,0-7.5,3.358-7.5,7.5v23.012H75.976   c-4.142,0-7.5,3.358-7.5,7.5c0,4.142,3.358,7.5,7.5,7.5h23.012v23.013c0,4.142,3.358,7.5,7.5,7.5c4.142,0,7.5-3.358,7.5-7.5   v-23.013h23.012c4.142,0,7.5-3.358,7.5-7.5C144.499,125.63,141.141,122.272,136.999,122.272z" data-original="#000000" class="active-path" data-old_color="#000000" fill="#1273EB"/>
</g></g> </svg>
